P3
4 4
255
255 0 0    170 85 0    85 170 0    0 255 0
170 0 85    141 85 85    113 170 85    85 255 85
85 0 170    113 85 170    141 170 170    170 255 170
0 0 255    85 85 255    170 170 255    255 255 255
