P3
20 20
255
255 255 255    255 255 255    255 255 255    255 255 255    255 255 255    255 255 255    255 255 255    255 255 255    255 255 255    255 255 255    255 255 255    255 255 255    255 255 255    255 255 255    255 255 255    255 255 255    255 255 255    255 255 255    255 255 255    255 255 255
255 255 255    255 255 255    255 255 255    255 255 255    255 255 255    255 255 255    255 255 255    255 255 255    255 255 255    255 255 255    255 255 255    255 255 255    255 255 255    255 255 255    255 255 255    255 255 255    255 255 255    255 255 255    255 255 255    255 255 255
255 255 255    255 255 255    255 255 255    255 255 255    255 255 255    255 255 255    255 255 255    255 255 255    255 255 255    255 255 255    255 255 255    255 255 255    255 255 255    255 255 255    255 255 255    255 255 255    255 255 255    255 255 255    255 255 255    255 255 255
255 255 255    255 255 255    255 255 255    255 255 255    255 255 255    255 255 255    0 0 0    0 0 0    0 0 0    0 0 0    0 0 0    0 0 0    0 0 0    255 255 255    255 255 255    255 255 255    255 255 255    255 255 255    255 255 255    255 255 255
255 255 255    255 255 255    255 255 255    255 255 255    255 255 255    0 0 0    255 0 0    255 0 0    255 0 0    255 0 0    255 0 0    255 0 0    255 0 0    0 0 0    255 255 255    255 255 255    255 255 255    255 255 255    255 255 255    255 255 255
255 255 255    255 255 255    255 255 255    255 255 255    0 0 0    178 34 34    255 0 0    255 0 0    255 0 0    255 0 0    255 0 0    255 0 0    255 0 0    255 0 0    0 0 0    255 255 255    255 255 255    255 255 255    255 255 255    255 255 255
255 255 255    255 255 255    255 255 255    255 255 255    0 0 0    178 34 34    255 0 0    255 0 0    255 0 0    255 0 0    255 0 0    255 0 0    255 0 0    255 0 0    0 0 0    255 255 255    255 255 255    255 255 255    255 255 255    255 255 255
255 255 255    255 255 255    0 0 0    0 0 0    0 0 0    178 34 34    255 0 0    255 0 0    0 0 0    0 0 0    0 0 0    0 0 0    0 0 0    0 0 0    0 0 0    255 255 255    255 255 255    255 255 255    255 255 255    255 255 255
255 255 255    0 0 0    255 0 0    255 0 0    0 0 0    178 34 34    255 0 0    0 0 0    95 158 160    175 238 238    175 238 238    175 238 238    255 255 255    255 255 255    255 255 255    0 0 0    255 255 255    255 255 255    255 255 255    255 255 255
255 255 255    0 0 0    255 0 0    178 34 34    0 0 0    178 34 34    255 0 0    0 0 0    95 158 160    175 238 238    175 238 238    175 238 238    175 238 238    175 238 238    175 238 238    0 0 0    255 255 255    255 255 255    255 255 255    255 255 255
255 255 255    0 0 0    178 34 34    178 34 34    0 0 0    178 34 34    255 0 0    0 0 0    95 158 160    95 158 160    95 158 160    95 158 160    95 158 160    95 158 160    95 158 160    0 0 0    255 255 255    255 255 255    255 255 255    255 255 255
255 255 255    0 0 0    178 34 34    178 34 34    0 0 0    178 34 34    255 0 0    255 0 0    0 0 0    0 0 0    0 0 0    0 0 0    0 0 0    0 0 0    0 0 0    255 255 255    255 255 255    255 255 255    255 255 255    255 255 255
255 255 255    0 0 0    178 34 34    178 34 34    0 0 0    178 34 34    178 34 34    255 0 0    255 0 0    255 0 0    255 0 0    255 0 0    255 0 0    178 34 34    0 0 0    255 255 255    255 255 255    255 255 255    255 255 255    255 255 255
255 255 255    0 0 0    178 34 34    178 34 34    0 0 0    178 34 34    178 34 34    178 34 34    255 0 0    255 0 0    255 0 0    255 0 0    178 34 34    178 34 34    0 0 0    255 255 255    255 255 255    255 255 255    255 255 255    255 255 255
255 255 255    0 0 0    178 34 34    178 34 34    0 0 0    178 34 34    178 34 34    178 34 34    178 34 34    178 34 34    178 34 34    178 34 34    178 34 34    178 34 34    0 0 0    255 255 255    255 255 255    255 255 255    255 255 255    255 255 255
255 255 255    0 0 0    178 34 34    178 34 34    0 0 0    178 34 34    178 34 34    178 34 34    178 34 34    178 34 34    178 34 34    178 34 34    178 34 34    178 34 34    0 0 0    255 255 255    255 255 255    255 255 255    255 255 255    255 255 255
255 255 255    255 255 255    0 0 0    0 0 0    0 0 0    178 34 34    178 34 34    178 34 34    178 34 34    178 34 34    178 34 34    0 0 0    178 34 34    178 34 34    0 0 0    255 255 255    255 255 255    255 255 255    255 255 255    255 255 255
255 255 255    255 255 255    255 255 255    255 255 255    0 0 0    178 34 34    178 34 34    178 34 34    0 0 0    0 0 0    0 0 0    178 34 34    178 34 34    178 34 34    0 0 0    255 255 255    255 255 255    255 255 255    255 255 255    255 255 255
255 255 255    255 255 255    255 255 255    255 255 255    0 0 0    178 34 34    178 34 34    178 34 34    0 0 0    255 255 255    0 0 0    178 34 34    178 34 34    178 34 34    0 0 0    255 255 255    255 255 255    255 255 255    255 255 255    255 255 255
255 255 255    255 255 255    255 255 255    255 255 255    0 0 0    0 0 0    0 0 0    0 0 0    0 0 0    255 255 255    0 0 0    0 0 0    0 0 0    0 0 0    0 0 0    255 255 255    255 255 255    255 255 255    255 255 255    255 255 255
