P3
16 16
255
163 205 157    163 205 157    71 197 55    71 197 55    131 204 131    131 204 131    139 195 149    139 195 149    96 224 97    96 224 97    110 220 92    110 220 92    163 205 157    163 205 157    46 148 71    46 148 71
163 205 157    163 205 157    71 197 55    71 197 55    131 204 131    131 204 131    139 195 149    139 195 149    96 224 97    96 224 97    110 220 92    110 220 92    163 205 157    163 205 157    46 148 71    46 148 71
46 148 71    46 148 71    97 137 103    97 137 103    7 147 6    7 147 6    71 197 55    71 197 55    69 127 69    69 127 69    110 220 92    110 220 92    15 115 16    15 115 16    211 211 210    211 211 210
46 148 71    46 148 71    97 137 103    97 137 103    7 147 6    7 147 6    71 197 55    71 197 55    69 127 69    69 127 69    110 220 92    110 220 92    15 115 16    15 115 16    211 211 210    211 211 210
71 197 55    71 197 55    4 4 4    4 4 4    4 4 4    4 4 4    163 205 157    163 205 157    27 215 69    27 215 69    4 4 4    4 4 4    4 4 4    4 4 4    221 220 221    221 220 221
71 197 55    71 197 55    4 4 4    4 4 4    4 4 4    4 4 4    163 205 157    163 205 157    27 215 69    27 215 69    4 4 4    4 4 4    4 4 4    4 4 4    221 220 221    221 220 221
9 186 8    9 186 8    4 4 4    4 4 4    4 4 4    4 4 4    27 163 55    27 163 55    15 115 16    15 115 16    4 4 4    4 4 4    4 4 4    4 4 4    76 228 82    76 228 82
9 186 8    9 186 8    4 4 4    4 4 4    4 4 4    4 4 4    27 163 55    27 163 55    15 115 16    15 115 16    4 4 4    4 4 4    4 4 4    4 4 4    76 228 82    76 228 82
76 228 82    76 228 82    71 197 55    71 197 55    96 224 97    96 224 97    4 4 4    4 4 4    4 4 4    0 1 0    199 210 194    199 210 194    96 224 97    96 224 97    71 197 55    71 197 55
76 228 82    76 228 82    71 197 55    71 197 55    96 224 97    96 224 97    4 4 4    4 4 4    4 4 4    0 1 0    199 210 194    199 210 194    96 224 97    96 224 97    71 197 55    71 197 55
139 195 149    139 195 149    46 148 71    46 148 71    4 4 4    4 4 4    4 4 4    4 4 4    4 4 4    4 4 4    4 4 4    4 4 4    97 137 103    97 137 103    179 204 174    179 204 174
139 195 149    139 195 149    46 148 71    46 148 71    4 4 4    4 4 4    4 4 4    4 4 4    4 4 4    4 4 4    4 4 4    4 4 4    97 137 103    97 137 103    179 204 174    179 204 174
194 226 187    194 226 187    88 158 92    88 158 92    4 4 4    4 4 4    4 4 4    4 4 4    4 4 4    4 4 4    4 4 4    4 4 4    156 238 157    156 238 157    46 148 71    46 148 71
194 226 187    194 226 187    88 158 92    88 158 92    4 4 4    4 4 4    4 4 4    4 4 4    4 4 4    4 4 4    4 4 4    4 4 4    156 238 157    156 238 157    46 148 71    46 148 71
27 163 55    27 163 55    163 205 157    163 205 157    1 1 0    1 1 0    126 225 136    126 225 136    194 226 187    194 226 187    1 1 0    1 1 0    71 197 55    71 197 55    100 204 84    100 204 84
27 163 55    27 163 55    163 205 157    163 205 157    1 1 0    1 1 0    126 225 136    126 225 136    194 226 187    194 226 187    1 1 0    1 1 0    71 197 55    71 197 55    100 204 84    100 204 84
